<?xml version="1.0" encoding="UTF-8" standalone="no"?>
<!DOCTYPE svg PUBLIC "-//W3C//DTD SVG 1.1//EN" "http://www.w3.org/Graphics/SVG/1.1/DTD/svg11.dtd">
<svg width="1521px" height="301px" version="1.1" xmlns="http://www.w3.org/2000/svg" xmlns:xlink="http://www.w3.org/1999/xlink" xml:space="preserve" xmlns:serif="http://www.serif.com/" style="fill-rule:evenodd;clip-rule:evenodd;stroke-linejoin:round;stroke-miterlimit:2;">
    <g transform="matrix(4.16667,0,0,4.16667,-177.417,-180.913)">
        <path d="M232.625,75.234L232.625,67.301L244.667,67.301C246.867,67.301 248.649,69.091 248.649,71.29C248.649,73.489 246.867,75.234 244.667,75.234L232.625,75.234ZM258,71.29C258,64.259 252.3,58.56 245.269,58.56L223.386,58.56L223.386,101.137L232.625,101.137L232.625,84.02L236.11,84.02L248.083,101.137L259.433,101.137L246.865,83.917C253.142,83.132 258,77.78 258,71.29ZM263.958,67.301L277.67,67.301L277.67,101.137L286.871,101.137L286.871,67.301L300.581,67.301L300.581,58.56L263.958,58.56L263.958,67.301ZM347.258,82.559L335.842,58.56L325.582,58.56L347.2,101.707L368.818,58.56L358.708,58.56L347.258,82.559ZM309.513,101.137L318.752,101.137L318.752,58.56L309.513,58.56L309.513,101.137ZM384.887,92.419L384.887,84.02L404.1,84.02L404.1,75.234L384.887,75.234L384.887,67.301L407.348,67.301L407.348,58.56L375.648,58.56L375.648,101.137L407.571,101.137L407.571,92.419L384.887,92.419ZM135.397,101.137L144.636,101.137L144.636,84.02L163.316,84.02L163.316,75.234L144.636,75.234L144.636,67.301L167.097,67.301L167.097,58.56L135.397,58.56L135.397,101.137ZM193.464,93.016C185.878,93.016 180.96,87.129 180.96,79.867C180.96,72.606 185.935,66.719 193.464,66.719C200.993,66.719 205.968,72.606 205.968,79.867C205.968,87.129 201.05,93.016 193.464,93.016ZM193.464,57.595C181.164,57.595 171.192,67.567 171.192,79.867C171.192,92.168 181.164,102.139 193.464,102.139C205.764,102.139 215.736,92.168 215.736,79.867C215.736,67.567 205.764,57.595 193.464,57.595Z" style="fill:rgb(3,4,4);fill-rule:nonzero;"/>
        <path d="M78.58,43.419C58.697,43.419 42.58,59.537 42.58,79.419C42.58,90.709 47.777,100.784 55.908,107.384L65.145,102.051C57.432,97.463 52.264,89.045 52.264,79.419C52.264,64.885 64.046,53.103 78.58,53.103C83.486,53.103 88.076,54.45 92.008,56.788L65.145,72.298L65.145,83.502L92.012,67.99L92.012,56.791C99.725,61.379 104.896,69.794 104.896,79.419C104.896,93.953 93.114,105.735 78.58,105.735C73.672,105.735 69.077,104.391 65.145,102.051L65.145,112.828C69.296,114.498 73.83,115.419 78.58,115.419C98.462,115.419 114.58,99.302 114.58,79.419C114.58,59.537 98.462,43.419 78.58,43.419ZM86.379,78.587L65.145,90.847L65.145,102.051L86.379,89.792L86.379,78.587Z" style="fill:rgb(102,189,74);fill-rule:nonzero;"/>
    </g>
</svg>
